<?xml version="1.0" encoding="UTF-8" standalone="no"?>
<svg
   xmlns:dc="http://purl.org/dc/elements/1.1/"
   xmlns:cc="http://creativecommons.org/ns#"
   xmlns:rdf="http://www.w3.org/1999/02/22-rdf-syntax-ns#"
   xmlns:svg="http://www.w3.org/2000/svg"
   xmlns="http://www.w3.org/2000/svg"
   height="268.46246"
   width="275.25647"
   viewBox="0 0 275.25647 268.46246"
   xml:space="preserve"
   id="svg1027"
   version="1.1"><metadata
     id="metadata1033"><rdf:RDF><cc:Work
         rdf:about=""><dc:format>image/svg+xml</dc:format><dc:type
           rdf:resource="http://purl.org/dc/dcmitype/StillImage" /><dc:title></dc:title></cc:Work></rdf:RDF></metadata><defs
     id="defs1031"><clipPath
       id="clipPath1045"
       clipPathUnits="userSpaceOnUse"><path
         id="path1043"
         d="M 0,551.986 H 530.973 V 0 H 0 Z" /></clipPath></defs><g
     transform="translate(-181.7604,-285.15818)"
     id="layer1"><path
       id="path1223"
       style="fill:#ffffff;fill-opacity:1;fill-rule:evenodd;stroke:none;stroke-width:8.44889259"
       d="m 319.37596,285.15818 c -75.99779,0 -137.61556,61.61778 -137.61556,137.63247 0,60.80668 39.43098,112.38717 94.12066,130.59453 6.88585,1.25889 9.39517,-2.9909 9.39517,-6.64083 0,-3.26127 -0.11828,-11.92138 -0.18587,-23.40343 -38.28194,8.31371 -46.35908,-18.45238 -46.35908,-18.45238 -6.26063,-15.90082 -15.28405,-20.13371 -15.28405,-20.13371 -12.49591,-8.53338 0.94628,-8.36441 0.94628,-8.36441 13.81394,0.97163 21.07999,14.18569 21.07999,14.18569 12.27624,21.0293 32.21563,14.95455 40.0562,11.43136 1.25044,-8.88824 4.79897,-14.95454 8.73615,-18.39324 -30.55964,-3.4725 -62.69078,-15.28405 -62.69078,-68.02204 0,-15.02213 5.36505,-27.30682 14.16879,-36.93011 -1.41941,-3.48094 -6.14234,-17.47231 1.34338,-36.42318 0,0 11.55808,-3.70061 37.85104,14.10965 10.97511,-3.0585 22.75287,-4.5793 34.45458,-4.62999 11.68482,0.0507 23.46258,1.57149 34.45459,4.62999 26.27605,-17.81026 37.80879,-14.10965 37.80879,-14.10965 7.51107,18.95087 2.78814,32.94224 1.36872,36.42318 8.82065,9.62329 14.1519,21.90798 14.1519,36.93011 0,52.87317 -32.18183,64.5073 -62.84287,67.9122 4.94261,4.24979 9.34448,12.64799 9.34448,25.49031 0,18.39324 -0.16898,33.23795 -0.16898,37.74965 0,3.68372 2.47553,7.96731 9.46276,6.62394 54.64744,-18.24116 94.04463,-69.78786 94.04463,-130.57764 0,-76.01469 -61.62623,-137.63247 -137.64092,-137.63247" /></g></svg>