<?xml version="1.0" encoding="UTF-8" standalone="no"?>
<svg
   xmlns:dc="http://purl.org/dc/elements/1.1/"
   xmlns:cc="http://creativecommons.org/ns#"
   xmlns:rdf="http://www.w3.org/1999/02/22-rdf-syntax-ns#"
   xmlns:svg="http://www.w3.org/2000/svg"
   xmlns="http://www.w3.org/2000/svg"
   xmlns:sodipodi="http://sodipodi.sourceforge.net/DTD/sodipodi-0.dtd"
   xmlns:inkscape="http://www.inkscape.org/namespaces/inkscape"
   id="logo_art"
   data-name="logo art"
   viewBox="0 0 586 559"
   version="1.1"
   sodipodi:docname="gitlab.svg"
   inkscape:version="0.92.4 5da689c313, 2019-01-14">
  <metadata
     id="metadata1571">
    <rdf:RDF>
      <cc:Work
         rdf:about="">
        <dc:format>image/svg+xml</dc:format>
        <dc:type
           rdf:resource="http://purl.org/dc/dcmitype/StillImage" />
        <dc:title>gitlab-icon-1-color-white-rgb</dc:title>
      </cc:Work>
    </rdf:RDF>
  </metadata>
  <sodipodi:namedview
     pagecolor="#ffffff"
     bordercolor="#666666"
     borderopacity="1"
     objecttolerance="10"
     gridtolerance="10"
     guidetolerance="10"
     inkscape:pageopacity="0"
     inkscape:pageshadow="2"
     inkscape:window-width="1920"
     inkscape:window-height="1056"
     id="namedview1569"
     showgrid="false"
     inkscape:pagecheckerboard="true"
     inkscape:zoom="1.4463048"
     inkscape:cx="215.90698"
     inkscape:cy="404.36443"
     inkscape:window-x="1600"
     inkscape:window-y="0"
     inkscape:window-maximized="0"
     inkscape:current-layer="layer2" />
  <defs
     id="defs1562">
    <style
       id="style1560">.cls-1{fill:#fff;}</style>
  </defs>
  <title
     id="title1564">gitlab-icon-1-color-white-rgb</title>
  <g
     inkscape:groupmode="layer"
     id="layer2"
     inkscape:label="logo">
    <path
       style="fill:#ffffff"
       class="cls-1"
       d="m 487.75385,231.97395 -17.78,-54.63 a 7.72,7.72 0 0 0 -0.43,-1.47 l -35.67,-109.800001 a 14.18,14.18 0 0 0 -13.54,-9.67 13.94,13.94 0 0 0 -13.38,9.75 l -34,104.630001 h -107.31 l -34.05,-104.630001 a 13.94,13.94 0 0 0 -13.32,-9.75 h -0.08 a 14.22,14.22 0 0 0 -13.5,9.76 l -35.7,109.930001 c 0,0.1 -0.08,0.18 -0.11,0.28 l -18.1,55.61 a 20.29,20.29 0 0 0 7.37,22.71 l 156.38,113.63 a 8,8 0 0 0 9.45,-0.05 v 0 l 156.41,-113.58 a 20.28,20.28 0 0 0 7.36,-22.72 z m -233.75,-45.13 43.59,134.16 -104.64,-134.16 z m 87,134.19 41.8,-128.62 1.8,-5.57 h 61.1 l -94.67,121.28 z m 79.47,-244.580001 30.63,94.330001 h -61.31 z m -52.71,110.330001 -30.37,93.46 -18.12,55.66 -48.42,-149.12 z m -149.64,-110.330001 30.69,94.330001 h -61.27 z m -50.56,165.300001 a 4.31,4.31 0 0 1 -1.56,-4.83 l 13.44,-41.3 98.57,126.37 z m 303.43,0 -110.46,80.21 0.37,-0.48 98.2,-125.86 13.44,41.28 a 4.31,4.31 0 0 1 -1.55,4.84 z"
       id="path1566"
       inkscape:connector-curvature="0" />
  </g>
</svg>
