<?xml version="1.0" encoding="UTF-8" standalone="no"?>
<svg
   xmlns:dc="http://purl.org/dc/elements/1.1/"
   xmlns:cc="http://creativecommons.org/ns#"
   xmlns:rdf="http://www.w3.org/1999/02/22-rdf-syntax-ns#"
   xmlns:svg="http://www.w3.org/2000/svg"
   xmlns="http://www.w3.org/2000/svg"
   version="1.1"
   id="svg881"
   width="202.21704"
   height="171.90727"
   viewBox="0 0 202.21704 171.90727">
  <metadata
     id="metadata887">
    <rdf:RDF>
      <cc:Work
         rdf:about="">
        <dc:format>image/svg+xml</dc:format>
        <dc:type
           rdf:resource="http://purl.org/dc/dcmitype/StillImage" />
        <dc:title></dc:title>
      </cc:Work>
    </rdf:RDF>
  </metadata>
  <defs
     id="defs885" />
  <path
     style="fill:#ffffff;stroke-width:0.31999999"
     d="m 187.45154,171.5547 c -3.32249,-1.08501 -5.93194,-3.39653 -7.40135,-6.55629 -0.6963,-1.49729 -0.83584,-2.25381 -0.83345,-4.5184 0.004,-3.62998 1.04019,-6.00013 3.70051,-8.46312 2.37871,-2.20227 4.56013,-3.05688 7.80276,-3.05688 4.60635,0 8.37356,2.39521 10.47228,6.65833 0.93118,1.89148 1.04488,2.41373 1.02223,4.69494 -0.0645,6.49656 -4.62081,11.31202 -10.9552,11.57838 -1.50023,0.0631 -2.98519,-0.0683 -3.80778,-0.33696 z m 7.66766,-1.71574 c 2.12509,-0.93085 4.12859,-2.93243 5.14771,-5.14274 0.54503,-1.18209 0.68959,-2.10086 0.68854,-4.37621 -0.001,-2.49543 -0.11462,-3.09537 -0.84975,-4.49285 -1.03645,-1.97031 -3.32173,-4.13239 -5.32948,-5.04217 -2.25953,-1.02387 -6.03361,-0.96073 -8.37621,0.14013 -2.11501,0.99392 -3.92298,2.74645 -5.07034,4.91489 -0.74355,1.40528 -0.84666,1.96997 -0.84724,4.64 -6.4e-4,2.55597 0.11605,3.25884 0.73233,4.41442 2.82809,5.30304 8.48973,7.31636 13.90444,4.94453 z m -8.39919,-9.35895 v -6.08 h 3.33545 c 3.10046,0 3.40315,0.057 4.29647,0.80865 1.94581,1.63729 1.47731,4.50483 -0.90169,5.51887 l -1.29613,0.55248 1.76853,2.64 c 1.72581,2.5762 1.7489,2.64 0.95577,2.64 -0.669,0 -1.12318,-0.48116 -2.56748,-2.72 -1.6512,-2.55957 -1.82064,-2.72 -2.8728,-2.72 h -1.11812 v 2.72 c 0,2.688 -0.009,2.72 -0.8,2.72 h -0.8 z m 6.3288,-1.13814 c 0.52864,-0.37028 0.7112,-0.81918 0.7112,-1.74875 0,-1.58965 -0.56453,-1.91311 -3.33896,-1.91311 h -2.10104 v 2.08 2.08 h 2.0088 c 1.30021,0 2.25967,-0.17572 2.72,-0.49814 z M 8.56116,170.25407 C 6.75771,169.68888 4.25781,168.05813 3.00168,166.62748 2.44288,165.99105 1.5389,164.5275 0.99284,163.37517 L 0,161.28001 V 85.263405 9.246807 L 1.20715,6.804306 C 2.58081,4.024889 4.35319,2.26237 7.16123,0.883362 L 8.96,0 h 76.48 76.48001 l 1.79877,0.883362 c 2.80803,1.379008 4.58042,3.141527 5.95408,5.920944 l 1.20715,2.442501 V 85.28 161.3132 l -1.20715,2.4425 c -1.37366,2.77942 -3.14605,4.54194 -5.95408,5.92095 l -1.79877,0.88336 -76.00001,0.06 c -62.4943,0.0493 -76.24148,-0.0157 -77.35884,-0.3659 z M 50.72,104.8 V 63.84 h -12.8 -12.8 v 40.96 40.96001 h 12.8 12.8 z M 92.08505,122 c 0.13219,-26.412656 0.10391,-26.039565 2.31373,-30.530576 1.44524,-2.937139 3.80094,-5.15288 6.61261,-6.219709 1.74994,-0.663981 2.57909,-0.769715 6.03586,-0.769715 3.89511,0 4.06789,0.02986 6.17377,1.066829 3.55612,1.751094 5.48804,4.819286 6.4812,10.293171 0.34109,1.879917 0.43787,7.54882 0.44662,26.16 l 0.0112,23.76001 h 12.81899 12.819 L 145.67002,117.68 c -0.12377,-27.142733 -0.15109,-28.20121 -0.81853,-31.711325 -1.51371,-7.960665 -3.65545,-12.58816 -7.73148,-16.704813 -4.50851,-4.553433 -9.65307,-6.652003 -18.06846,-7.370496 -8.6539,-0.738857 -14.85949,0.802327 -20.81155,5.168637 -2.05315,1.506147 -4.95774,4.567616 -6.21608,6.551808 L 91.04,75.165299 V 69.50265 63.84 H 78.72 66.4 v 40.96 40.96001 H 79.18306 91.96613 Z M 42.37089,52.033741 C 52.9193,48.750707 56.16577,35.369872 48.31795,27.522047 45.36299,24.567087 42.09989,23.215645 37.92,23.215645 c -8.34407,0 -14.72,6.356346 -14.72,14.674784 0,6.588765 4.00823,12.160387 10.16382,14.128176 2.49344,0.797088 6.47316,0.803776 9.00707,0.01514 z"
     id="path891" />
</svg>
