<?xml version="1.0" encoding="UTF-8" standalone="no"?>
<svg
   xmlns:dc="http://purl.org/dc/elements/1.1/"
   xmlns:cc="http://creativecommons.org/ns#"
   xmlns:rdf="http://www.w3.org/1999/02/22-rdf-syntax-ns#"
   xmlns:svg="http://www.w3.org/2000/svg"
   xmlns="http://www.w3.org/2000/svg"
   viewBox="0 0 203.2 172.8"
   height="172.8"
   width="203.2"
   id="svg881"
   version="1.1">
  <metadata
     id="metadata887">
    <rdf:RDF>
      <cc:Work
         rdf:about="">
        <dc:format>image/svg+xml</dc:format>
        <dc:type
           rdf:resource="http://purl.org/dc/dcmitype/StillImage" />
        <dc:title></dc:title>
      </cc:Work>
    </rdf:RDF>
  </metadata>
  <defs
     id="defs885" />
  <path
     id="path891"
     d="m 152.05357,129.5669 c -3.32249,-1.08501 -5.93194,-3.39653 -7.40135,-6.55629 -0.6963,-1.49729 -0.83584,-2.25381 -0.83345,-4.5184 0.004,-3.62998 1.04019,-6.00013 3.70051,-8.46312 2.37871,-2.20227 4.56013,-3.05688 7.80276,-3.05688 4.60635,0 8.37356,2.39521 10.47228,6.65833 0.93118,1.89148 1.04488,2.41373 1.02223,4.69494 -0.0645,6.49656 -4.62081,11.31202 -10.9552,11.57838 -1.50023,0.0631 -2.98519,-0.0683 -3.80778,-0.33696 z m 7.66766,-1.71574 c 2.12509,-0.93085 4.12859,-2.93243 5.14771,-5.14274 0.54503,-1.18209 0.68959,-2.10086 0.68854,-4.37621 -0.001,-2.49543 -0.11462,-3.09537 -0.84975,-4.49285 -1.03645,-1.97031 -3.32173,-4.13239 -5.32948,-5.04217 -2.25953,-1.02387 -6.03361,-0.96073 -8.37621,0.14013 -2.11501,0.99392 -3.92298,2.74645 -5.07034,4.91489 -0.74355,1.40528 -0.84666,1.96997 -0.84724,4.64 -6.4e-4,2.55597 0.11605,3.25884 0.73233,4.41442 2.82809,5.30304 8.48973,7.31636 13.90444,4.94453 z m -8.39919,-9.35895 v -6.08 h 3.33545 c 3.10046,0 3.40315,0.057 4.29647,0.80865 1.94581,1.63729 1.47731,4.50483 -0.90169,5.51887 l -1.29613,0.55248 1.76853,2.64 c 1.72581,2.5762 1.7489,2.64 0.95577,2.64 -0.669,0 -1.12318,-0.48116 -2.56748,-2.72 -1.6512,-2.55957 -1.82064,-2.72 -2.8728,-2.72 h -1.11812 v 2.72 c 0,2.688 -0.009,2.72 -0.8,2.72 h -0.8 z m 6.3288,-1.13814 c 0.52864,-0.37028 0.7112,-0.81918 0.7112,-1.74875 0,-1.58965 -0.56453,-1.91311 -3.33896,-1.91311 h -2.10104 v 2.08 2.08 h 2.0088 c 1.30021,0 2.25967,-0.17572 2.72,-0.49814 z m -184.487643,10.9122 c -1.80345,-0.56519 -4.30335,-2.19594 -5.55948,-3.62659 -0.5588,-0.63643 -1.46278,-2.09998 -2.00884,-3.25231 l -0.99284,-2.09516 V 43.275608 -32.74099 l 1.20715,-2.442501 c 1.37366,-2.779417 3.14604,-4.541936 5.95408,-5.920944 l 1.79877,-0.883362 h 76.48 76.480003 l 1.79877,0.883362 c 2.80803,1.379008 4.58042,3.141527 5.95408,5.920944 l 1.20715,2.442501 V 43.292203 119.3254 l -1.20715,2.4425 c -1.37366,2.77942 -3.14605,4.54194 -5.95408,5.92095 l -1.79877,0.88336 -76.000003,0.06 c -62.4943,0.0493 -76.24148,-0.0157 -77.35884,-0.3659 z m 42.15884,-65.454067 v -40.96 H 2.5220368 -10.277963 v 40.96 40.960007 H 2.5220368 15.322037 Z m 41.36505,17.200004 c 0.13219,-26.41266 0.10391,-26.039569 2.31373,-30.53058 1.44524,-2.937139 3.80094,-5.15288 6.61261,-6.219709 1.74994,-0.663981 2.57909,-0.769715 6.03586,-0.769715 3.89511,0 4.06789,0.02986 6.17377,1.066829 3.55612,1.751094 5.48804,4.819286 6.4812,10.293171 0.34109,1.879917 0.43787,7.54882 0.44662,26.160004 l 0.0112,23.760003 h 12.81899 12.818993 l -0.12801,-28.080003 c -0.12377,-27.142737 -0.15109,-28.201214 -0.81853,-31.711329 -1.51371,-7.960665 -3.65545,-12.58816 -7.73148,-16.704813 -4.508503,-4.553433 -9.653063,-6.652003 -18.068453,-7.370496 -8.6539,-0.738857 -14.85949,0.802327 -20.81155,5.168637 -2.05315,1.506147 -4.95774,4.567616 -6.21608,6.551808 l -0.98392,1.551488 v -5.662649 -5.66265 h -12.32 -12.32 v 40.96 40.960007 h 12.78306 12.78307 z M 6.9729268,10.045944 C 17.521337,6.7629097 20.767807,-6.6179253 12.919987,-14.46575 9.9650268,-17.42071 6.7019268,-18.772152 2.5220368,-18.772152 c -8.34407,0 -14.7199998,6.356346 -14.7199998,14.6747837 0,6.588765 4.0082298,12.160387 10.1638198,14.1281763 2.49344001,0.797088 6.47316,0.803776 9.00707,0.01514 z"
     style="fill:#ffffff;stroke-width:0.31999999" />
</svg>
